HIERARCHY
ROOT Hips
{
  OFFSET -125.086 92.215 135.881
  CHANNELS 6 Xposition Yposition Zposition Zrotation Xrotation Yrotation
  JOINT LeftUpLeg
  {
    OFFSET 8.64259 1.95398 -2.38835
    CHANNELS 3 Zrotation Xrotation Yrotation
    JOINT LeftLeg
    {
      OFFSET 43.7702 0 0
      CHANNELS 3 Zrotation Xrotation Yrotation
      JOINT LeftFoot
      {
        OFFSET 40.6238 0 0
        CHANNELS 3 Zrotation Xrotation Yrotation
        JOINT LeftToeBase
        {
          OFFSET 12.7242 0 0
          CHANNELS 3 Zrotation Xrotation Yrotation
          End Site
          {
            OFFSET 0 0 0
          }
        }
      }
    }
  }
  JOINT RightUpLeg
  {
    OFFSET -8.2249 1.95398 -2.59336
    CHANNELS 3 Zrotation Xrotation Yrotation
    JOINT RightLeg
    {
      OFFSET 43.5653 0 0
      CHANNELS 3 Zrotation Xrotation Yrotation
      JOINT RightFoot
      {
        OFFSET 40.6238 0 0
        CHANNELS 3 Zrotation Xrotation Yrotation
        JOINT RightToeBase
        {
          OFFSET 12.7242 0 0
          CHANNELS 3 Zrotation Xrotation Yrotation
          End Site
          {
            OFFSET 0 0 0
          }
        }
      }
    }
  }
  JOINT Spine
  {
    OFFSET 0.165834 0.87714 6.61349
    CHANNELS 3 Zrotation Xrotation Yrotation
    JOINT Spine1
    {
      OFFSET 7.38963 1.71661e-005 0
      CHANNELS 3 Zrotation Xrotation Yrotation
      JOINT Spine2
      {
        OFFSET 11.9445 1.14441e-005 0
        CHANNELS 3 Zrotation Xrotation Yrotation
        JOINT Spine3
        {
          OFFSET 14.7254 4.19617e-005 0
          CHANNELS 3 Zrotation Xrotation Yrotation
          JOINT Spine4
          {
            OFFSET 10.9679 0 0
            CHANNELS 3 Zrotation Xrotation Yrotation
            JOINT RightShoulder
            {
              OFFSET 2.46616 -1.6653 3.69651
              CHANNELS 3 Zrotation Xrotation Yrotation
              JOINT RightArm
              {
                OFFSET 13.0012 0 0
                CHANNELS 3 Zrotation Xrotation Yrotation
                JOINT RightForeArm
                {
                  OFFSET 28.7848 1.52588e-005 0
                  CHANNELS 3 Zrotation Xrotation Yrotation
                  JOINT RightHand
                  {
                    OFFSET 26.5688 1.52588e-005 0
                    CHANNELS 3 Zrotation Xrotation Yrotation
                    End Site
                    {
                      OFFSET 0 0 0
                    }
                  }
                }
              }
            }
            JOINT LeftShoulder
            {
              OFFSET 2.38034 -1.29275 -3.7523
              CHANNELS 3 Zrotation Xrotation Yrotation
              JOINT LeftArm
              {
                OFFSET 16.3182 6.10352e-005 0
                CHANNELS 3 Zrotation Xrotation Yrotation
                JOINT LeftForeArm
                {
                  OFFSET 27.0901 0 0
                  CHANNELS 3 Zrotation Xrotation Yrotation
                  JOINT LeftHand
                  {
                    OFFSET 24.5451 1.52588e-005 0
                    CHANNELS 3 Zrotation Xrotation Yrotation
                    End Site
                    {
                      OFFSET 0 0 0
                    }
                  }
                }
              }
            }
            JOINT Neck
            {
              OFFSET 5.0226 -0.0266342 0
              CHANNELS 3 Zrotation Xrotation Yrotation
              JOINT Head
              {
                OFFSET 6.69363 2.86102e-005 0
                CHANNELS 3 Zrotation Xrotation Yrotation
                End Site
                {
                  OFFSET 0 0 0
                }
              }
            }
          }
        }
      }
    }
  }
}
MOTION
Frames:	7
Frame Time:	0.0416667
-8.67285 96.735 5.21354 138.522 -85.0177 138.894 -174.746 1.22676 91.2862 -15.7043 6.4883 3.53871 65.591 5.55657 -1.93311 33.9266 -0.684687 3.46159 174.167 2.1721 86.9116 -16.2526 -6.14669 -0.423734 66.5266 -4.699 3.75339 31.3224 -0.178743 -2.88028 -0.298936 7.15697 -90.2098 12.5589 -0.693817 -0.33854 0.888148 -0.708041 -0.307689 -21.6477 -0.55999 -0.53141 -1.63505 -0.559992 -0.531414 110.239 -53.3987 -70.1087 30.3004 1.44828 -14.1007 3.66226 -16.1191 -6.71727 -20.7782 -0.854946 -0.437396 -75.3781 -46.7756 100.763 -44.9526 -6.32386 -21.7806 4.22494 47.9391 0.00898986 -2.71848 -0.07468 -9.61567 9.28328 -1.70824 4.53394 -21.1323 -1.44224 -8.08427 
-8.63081 96.7234 5.19192 137.922 -85.3097 138.618 -174.676 1.262 91.5424 -15.1826 6.32796 3.61627 65.7707 5.70643 -2.13824 33.8744 -0.691897 3.60477 174.374 2.2663 87.2372 -15.8817 -6.0829 -0.41778 66.121 -4.55705 3.7537 31.7224 -0.278993 -2.5045 -0.280233 7.13459 -90.2501 12.6034 -0.675872 -0.420676 0.932587 -0.693729 -0.390524 -21.6029 -0.518197 -0.604349 -1.5903 -0.518203 -0.604362 110.124 -53.276 -70.2623 30.4207 1.21813 -13.9764 3.75953 -15.4128 -6.96441 -20.9927 -0.873265 -0.385096 -75.4603 -46.8449 100.629 -44.7308 -6.24029 -21.8092 4.05477 47.6112 0.00893334 -2.93922 -0.063816 -9.74888 8.95363 -1.64259 4.4275 -20.286 -1.42268 -7.94534 
-8.60963 96.7256 5.17606 137.856 -85.411 138.575 -174.692 1.38897 91.5124 -15.2925 6.03472 3.59555 65.8493 5.70659 -2.16864 33.7611 -0.684255 3.5829 174.397 2.3569 87.2538 -15.8707 -5.99152 -0.416545 66.1552 -4.57525 3.82133 31.6146 -0.264028 -2.44405 -0.273974 7.13463 -90.2619 12.6032 -0.669061 -0.44503 0.932371 -0.687996 -0.415158 -21.603 -0.504386 -0.625531 -1.59039 -0.504387 -0.625543 110.073 -53.1921 -70.3257 30.5042 1.22616 -13.9957 3.73954 -15.2864 -7.03077 -20.9971 -0.912955 -0.167402 -75.3304 -47.0202 100.826 -44.6222 -6.16525 -21.8584 3.96303 47.3692 0.00889227 -2.69563 -0.0753993 -9.7357 9.08109 -1.51564 4.91762 -20.3312 -1.31836 -8.54365 
-8.61364 96.7289 5.1676 137.725 -85.3858 138.437 -174.681 1.45578 91.517 -15.4278 5.97339 3.58279 65.8271 5.64085 -2.20455 33.7735 -0.653571 3.146 174.386 2.34961 87.248 -15.8842 -5.81672 -0.409629 66.2738 -4.60576 3.94848 31.2698 -0.195771 -2.53538 -0.275803 7.15034 -90.2567 12.5718 -0.670203 -0.434785 0.900982 -0.688681 -0.404868 -21.6345 -0.50855 -0.616238 -1.62183 -0.508547 -0.616229 110.077 -53.1842 -70.3192 30.5342 1.14362 -14.0729 3.85384 -15.0883 -6.90662 -21.4083 -0.864708 -0.527408 -75.3026 -47.0539 100.869 -44.5626 -6.07897 -21.8496 3.89644 46.9211 0.00881763 -2.31042 -0.093145 -9.61477 9.34228 -1.51535 4.45949 -20.3916 -1.32255 -7.87006 
-8.5937 96.7165 5.15597 137.066 -85.4202 137.784 -174.717 1.42435 91.4997 -15.1988 6.03715 3.60299 65.7706 5.68543 -2.02352 33.8154 -0.645345 2.99552 174.366 2.4334 87.2264 -15.9017 -5.65223 -0.378415 66.3818 -4.6036 4.15908 31.0926 -0.175182 -2.39114 -0.279109 7.15189 -90.2538 12.5688 -0.675358 -0.428406 0.897936 -0.693563 -0.398271 -21.6375 -0.515393 -0.607517 -1.62488 -0.515393 -0.607513 110.128 -53.2603 -70.2543 30.3904 0.967921 -14.0908 4.02422 -14.6729 -6.97047 -21.6334 -0.914622 -0.309344 -75.1839 -47.0929 101.054 -44.6298 -6.20171 -21.8914 4.04122 47.5495 0.00892283 -2.45308 -0.086705 -9.79158 9.27429 -1.4458 4.48195 -20.4102 -1.25414 -7.87729 
-8.58588 96.7192 5.13503 136.203 -85.4321 136.887 -174.712 1.52947 91.4767 -15.2841 6.18 3.56275 65.8236 5.71211 -1.91024 33.6451 -0.620224 2.7888 174.383 2.52428 87.2151 -15.9643 -5.43748 -0.399763 66.383 -4.6009 4.07634 31.1381 -0.228118 -1.81288 -0.279706 7.16954 -90.2514 12.5335 -0.675375 -0.423946 0.862643 -0.693385 -0.393817 -21.6729 -0.516749 -0.607446 -1.66022 -0.516746 -0.607451 110.089 -53.3113 -70.3197 30.411 1.12359 -14.0781 3.8346 -15.2787 -7.1426 -21.4893 -0.96787 0.0135171 -75.2744 -46.9183 100.919 -44.8758 -6.20439 -21.8509 4.1338 47.6169 0.00893432 -2.29194 -0.0939573 -9.70278 9.51296 -1.46248 4.37937 -20.548 -1.2905 -7.58575 
-8.58678 96.7126 5.10762 134.985 -85.3861 135.597 -174.783 1.60723 91.3893 -15.3884 6.54317 3.57207 65.7286 5.64513 -1.97984 33.8702 -0.707197 3.81809 174.365 2.61526 87.1486 -16.0451 -5.22529 -0.40593 66.4483 -4.53753 4.34703 31.0492 -0.180337 -2.22764 -0.298552 7.17803 -90.2477 12.5165 -0.711022 -0.412488 0.845683 -0.728487 -0.380796 -21.69 -0.554182 -0.607115 -1.67735 -0.554185 -0.607115 109.864 -53.1925 -70.6378 30.5712 1.22804 -13.9998 3.7721 -15.488 -7.05557 -21.4032 -0.949359 -0.063643 -75.2911 -46.8525 100.897 -44.8476 -6.04761 -21.7205 3.98014 47.2565 0.00887333 -1.70398 -0.121257 -9.60825 9.21785 -1.58377 4.13104 -20.4677 -1.408 -7.18763 
